<?xml version="1.0" encoding="UTF-8"?><svg xmlns="http://www.w3.org/2000/svg" viewBox="0 0 256 256"><g id="a"/><g id="b"/><g id="c"/><g id="d"/><g id="e"/><g id="f"/><g id="g"/><g id="h"/><g id="i"/><g id="j"/><g id="k"/><g id="l"/><g id="m"><path d="M138.7,88.73c9.1-3.21,16.37-10.49,19.58-19.58h33.92l-32.1,74.9c0,17.76,16.8,32.1,37.45,32.1s37.45-14.34,37.45-32.1l-32.1-74.9h21.4v-21.4h-66.02c-4.39-12.52-16.26-21.4-30.28-21.4s-25.89,8.88-30.28,21.4H31.7v21.4h21.4L21,144.05c0,17.76,16.8,32.1,37.45,32.1s37.45-14.34,37.45-32.1L63.8,69.15h33.92c3.21,9.09,10.49,16.37,19.58,19.58v119.52H21v21.4H235v-21.4h-96.3V88.73Zm78.86,55.32h-40.02l20.01-46.65,20.01,46.65Zm-139.1,0H38.44l20.01-46.65,20.01,46.65Zm49.54-74.9c-5.89,0-10.7-4.81-10.7-10.7s4.81-10.7,10.7-10.7,10.7,4.81,10.7,10.7-4.81,10.7-10.7,10.7Z"/></g><g id="n"/></svg>