<?xml version="1.0" standalone="no"?>
<!DOCTYPE svg PUBLIC "-//W3C//DTD SVG 20010904//EN"
 "http://www.w3.org/TR/2001/REC-SVG-20010904/DTD/svg10.dtd">
<svg version="1.0" xmlns="http://www.w3.org/2000/svg"
 width="980.000000pt" height="980.000000pt" viewBox="0 0 980.000000 980.000000"
 preserveAspectRatio="xMidYMid meet">

<g transform="translate(0.000000,980.000000) scale(0.100000,-0.100000)"
fill="#000000" stroke="none">
<path d="M4560 9789 c-1035 -75 -1998 -463 -2800 -1128 -150 -123 -501 -475
-622 -621 -742 -899 -1138 -1992 -1138 -3140 0 -1148 396 -2241 1138 -3140
122 -148 474 -500 622 -622 1058 -873 2370 -1261 3730 -1102 1636 190 3086
1224 3815 2719 756 1551 637 3401 -310 4835 -302 458 -699 883 -1134 1214
-714 544 -1546 872 -2461 971 -174 19 -664 27 -840 14z m3087 -2633 c72 -33
134 -95 166 -164 31 -68 31 -199 -1 -263 -36 -74 -87 -125 -160 -161 l-67 -33
-2685 0 -2685 0 -56 26 c-76 36 -129 86 -165 156 -25 51 -29 69 -29 143 0 65
5 96 21 131 42 90 125 159 223 185 36 10 620 12 2711 11 l2665 -2 62 -29z m0
-1960 c72 -33 134 -95 166 -164 31 -68 31 -199 -1 -263 -36 -74 -87 -125 -160
-161 l-67 -33 -2685 0 -2685 0 -67 33 c-73 36 -123 86 -160 161 -31 64 -32
195 -2 262 42 90 125 159 223 185 36 10 620 12 2711 11 l2665 -2 62 -29z m-6
-1957 c76 -36 133 -90 166 -157 24 -49 28 -69 28 -142 0 -68 -5 -94 -23 -131
-36 -74 -87 -125 -160 -161 l-67 -33 -2685 0 -2685 0 -67 33 c-73 36 -123 86
-160 161 -31 64 -32 195 -2 262 42 90 125 159 223 185 36 10 620 12 2711 11
l2665 -2 56 -26z"/>
</g>
</svg>
