<?xml version="1.0" standalone="no"?>
<!DOCTYPE svg PUBLIC "-//W3C//DTD SVG 20010904//EN"
 "http://www.w3.org/TR/2001/REC-SVG-20010904/DTD/svg10.dtd">
<svg version="1.0" xmlns="http://www.w3.org/2000/svg"
 width="512.000000pt" height="512.000000pt" viewBox="0 0 512.000000 512.000000"
 preserveAspectRatio="xMidYMid meet">

<g transform="translate(0.000000,512.000000) scale(0.100000,-0.100000)"
fill="#000000" stroke="none">
<path d="M2375 5054 c-313 -33 -550 -98 -805 -220 -389 -187 -689 -448 -933
-811 -176 -263 -297 -574 -354 -911 -25 -149 -25 -571 0 -717 79 -455 259
-831 558 -1171 46 -52 86 -94 89 -94 3 0 68 63 144 139 l140 140 -65 73 c-426
479 -585 1115 -434 1736 130 535 511 1005 1010 1248 533 258 1139 258 1670 -1
212 -103 364 -214 536 -392 255 -263 418 -572 495 -938 35 -166 44 -466 20
-635 -83 -567 -395 -1052 -871 -1355 -59 -37 -246 -135 -258 -135 -4 0 -7 98
-7 218 0 200 -2 220 -20 250 -24 39 -81 66 -122 58 -23 -5 -952 -535 -1099
-627 -27 -17 -52 -43 -59 -60 -17 -41 -7 -107 22 -134 13 -13 266 -163 563
-335 582 -337 590 -340 653 -300 56 35 62 65 62 293 l0 203 53 18 c81 29 288
129 379 185 262 158 481 357 668 606 244 326 398 725 441 1144 14 141 6 447
-15 585 -157 993 -939 1768 -1936 1921 -101 15 -441 28 -525 19z"/>
<path d="M2507 4379 c-48 -28 -47 -19 -47 -809 l0 -740 -576 0 -576 0 -29 -29
c-40 -40 -40 -89 0 -133 l29 -33 647 0 647 0 29 33 29 32 0 806 c0 864 1 847
-49 874 -25 13 -81 12 -104 -1z"/>
</g>
</svg>
