<?xml version="1.0" standalone="no"?>
<!DOCTYPE svg PUBLIC "-//W3C//DTD SVG 20010904//EN"
 "http://www.w3.org/TR/2001/REC-SVG-20010904/DTD/svg10.dtd">
<svg version="1.0" xmlns="http://www.w3.org/2000/svg"
 width="980.000000pt" height="980.000000pt" viewBox="0 0 980.000000 980.000000"
 preserveAspectRatio="xMidYMid meet">

<g transform="translate(0.000000,980.000000) scale(0.100000,-0.100000)"
fill="#000000" stroke="none">
<path d="M4560 9789 c-1035 -75 -1992 -461 -2800 -1127 -148 -122 -500 -474
-622 -622 -534 -647 -880 -1372 -1042 -2180 -259 -1291 18 -2648 761 -3727
277 -403 628 -778 1018 -1087 440 -348 980 -636 1525 -811 1440 -463 3025
-232 4267 622 407 279 799 649 1099 1034 735 946 1100 2126 1024 3314 -70
1094 -491 2109 -1216 2935 -111 126 -387 398 -504 496 -781 653 -1664 1030
-2670 1139 -174 19 -664 27 -840 14z m575 -609 c675 -40 1304 -225 1888 -557
142 -80 417 -268 557 -380 160 -127 423 -382 562 -543 1130 -1307 1365 -3163
597 -4702 -226 -453 -490 -813 -860 -1173 -348 -339 -682 -572 -1130 -789
-1190 -576 -2577 -563 -3769 34 -568 285 -1073 701 -1475 1215 -269 345 -515
801 -659 1223 -373 1090 -295 2275 216 3296 99 197 145 276 274 471 353 533
835 989 1392 1318 722 428 1577 636 2407 587z"/>
<path d="M3554 6725 c-228 -50 -401 -212 -471 -440 -17 -57 -18 -127 -18
-1385 0 -1258 1 -1328 18 -1385 65 -209 223 -367 432 -432 57 -17 127 -18
1385 -18 1258 0 1328 1 1385 18 209 65 367 223 432 432 17 57 18 127 18 1385
0 1258 -1 1328 -18 1385 -63 203 -205 352 -404 422 l-78 28 -1310 2 c-1062 1
-1322 -1 -1371 -12z"/>
</g>
</svg>
